<?xml version="1.0" standalone="no"?>
<!DOCTYPE svg PUBLIC "-//W3C//DTD SVG 20010904//EN"
 "http://www.w3.org/TR/2001/REC-SVG-20010904/DTD/svg10.dtd">
<svg version="1.0" xmlns="http://www.w3.org/2000/svg"
 width="250.000000pt" height="250.000000pt" viewBox="0 0 250.000000 250.000000"
 preserveAspectRatio="xMidYMid meet">
<metadata>
Created by potrace 1.11, written by Peter Selinger 2001-2013
</metadata>
<g transform="translate(0.000000,250.000000) scale(0.100000,-0.100000)"
fill="#000000" stroke="none">
<path d="M581 2450 c-99 -36 -174 -98 -191 -159 -14 -52 -13 -77 10 -156 30
-104 69 -257 76 -300 3 -21 8 -47 11 -59 4 -11 7 -239 8 -506 1 -508 2 -527
40 -680 66 -267 187 -420 395 -503 254 -101 477 -37 655 187 21 27 53 64 70
82 l30 33 57 -34 c116 -69 281 -127 332 -117 14 3 9 10 -25 30 -46 27 -88 62
-76 62 4 0 35 -9 68 -21 98 -33 99 -22 6 71 -170 171 -204 328 -123 560 84
239 111 411 110 700 0 312 -21 448 -90 580 -45 85 -91 133 -167 175 -105 58
-149 49 -248 -47 -64 -62 -86 -92 -129 -178 l-32 -63 43 7 c24 4 68 20 98 36
105 55 140 41 182 -69 22 -60 65 -217 73 -266 30 -195 24 -343 -21 -525 -8
-36 -17 -68 -20 -73 -5 -8 -32 24 -97 115 -90 127 -161 184 -237 191 -79 6
-186 -49 -280 -144 l-49 -50 6 63 c8 83 8 353 -1 420 -3 29 -8 71 -11 93 -17
134 -62 292 -114 395 -74 146 -211 203 -359 150z m583 -1440 c106 -113 138
-156 190 -251 29 -54 32 -66 24 -93 -33 -98 -164 -149 -243 -94 -74 50 -96
128 -99 348 -3 176 0 203 19 198 6 -2 56 -50 109 -108z"/>
<path d="M1273 2015 c-58 -29 -131 -104 -158 -161 -22 -47 -15 -107 16 -140
13 -14 52 -33 90 -44 l68 -21 78 42 c166 89 218 136 216 195 -1 45 -24 74 -87
113 -78 47 -152 52 -223 16z"/>
</g>
</svg>
