<svg xmlns="http://www.w3.org/2000/svg" viewBox="0 0 55.29 77.58">
  <title>Asset 5</title>
  <g id="Layer_2" data-name="Layer 2">
    <g id="Layer_1-2" data-name="Layer 1">
      <g>
        <path d="M49.76,67.91A11.8,11.8,0,0,0,54,71a.15.15,0,0,1-.06.28c-4.24.24-9.94-3.09-12.71-4.86A48.08,48.08,0,0,0,38,70.08c-9.59,13.62-26.74,6.49-31.15-4A42.49,42.49,0,0,1,3.65,51.9c-.43-8.79.34-17.63.05-26.42C3.57,21.32,1.82,14.36.52,10.37c-1.6-4.91.62-7.39,5-9.4s9.4-1,11.92,3.88C21.25,12.31,22,21.16,21.9,29.43c0,2.13-.26,4.25-.46,7.1C25,32.44,29.37,29,33.54,30.6c3.61,1.41,5.82,6.25,8.78,9.73A38.8,38.8,0,0,0,44,22.59a56.13,56.13,0,0,0-2.8-10.9c-.44-1.31-2.21-4.09-5-1.73a10.22,10.22,0,0,1-4.72,1.6.08.08,0,0,1-.09-.11c1.71-4.37,4.34-8.11,8.46-10.24C41.06.58,45.32,2.67,46.57,4c4.69,4.87,5.2,10.26,5.61,16.8.61,9.88-.12,19.58-3.74,29-2.63,6.84-.29,13.75,5.73,18.34a2.69,2.69,0,0,1,1.12,1.57l-3.21-.82A23.77,23.77,0,0,1,49.76,67.91Zm-28-24.68a.51.51,0,0,0-.65-.23c-.61.14-.41,1.3-.42,1.73,0,3.48-.09,6.58.18,10a9.15,9.15,0,0,0,1.75,4.83c2.15,2.72,5,2.21,7.45.36,1-.75,2-3,1.62-3.69C27.65,48.26,25,47.37,21.78,43.23Z"/>
        <path d="M28.74,26.16c-3-1-5.66-.88-6-4.22-.29-2.73,3.25-6.37,5.35-7.42,3-1.5,5.23-.77,7.62.74,2.64,1.66,3.23,4.19.87,6.21S31.38,24.63,28.74,26.16Z"/>
      </g>
    </g>
  </g>
</svg>
