<?xml version="1.0" encoding="utf-8"?>
<!-- Generator: Adobe Illustrator 22.1.0, SVG Export Plug-In . SVG Version: 6.00 Build 0)  -->
<svg version="1.1" id="Layer_1" xmlns="http://www.w3.org/2000/svg" xmlns:xlink="http://www.w3.org/1999/xlink" x="0px" y="0px"
	 viewBox="0 0 55.3 77.6" style="enable-background:new 0 0 55.3 77.6;" xml:space="preserve">
<style type="text/css">
	.st0{fill:#FFFFFF;}
</style>
<title>Asset 5</title>
<g id="Layer_2_1_">
	<g id="Layer_1-2">
		<g>
			<path class="st0" d="M49.8,67.9c1.2,1.3,2.6,2.4,4.2,3.1c0.1,0,0.1,0.1,0.1,0.2c0,0-0.1,0.1-0.1,0.1c-4.2,0.2-9.9-3.1-12.7-4.9
				c-1.1,1.2-2.2,2.4-3.2,3.7c-9.6,13.6-26.7,6.5-31.1-4c-1.9-4.5-3-9.3-3.2-14.2c-0.4-8.8,0.3-17.6,0-26.4
				c-0.1-4.2-1.9-11.1-3.2-15.1C-1.1,5.5,1.1,3,5.5,1s9.4-1,11.9,3.9c3.8,7.5,4.6,16.3,4.5,24.6c0,2.1-0.3,4.2-0.5,7.1
				c3.6-4.1,7.9-7.5,12.1-5.9c3.6,1.4,5.8,6.2,8.8,9.7c1.9-5.7,2.5-11.8,1.7-17.7c-0.6-3.7-1.5-7.4-2.8-10.9c-0.4-1.3-2.2-4.1-5-1.7
				c-1.4,0.9-3,1.5-4.7,1.6c0,0-0.1,0-0.1-0.1c0,0,0,0,0,0c1.7-4.4,4.3-8.1,8.5-10.2c1.2-0.6,5.5,1.5,6.7,2.8
				c4.7,4.9,5.2,10.3,5.6,16.8c0.6,9.9-0.1,19.6-3.7,29c-2.6,6.8-0.3,13.8,5.7,18.3c0.6,0.4,1,0.9,1.1,1.6l-3.2-0.8
				C51.3,68.6,50.5,68.3,49.8,67.9z M21.8,43.2c-0.1-0.2-0.4-0.3-0.6-0.2c-0.6,0.1-0.4,1.3-0.4,1.7c0,3.5-0.1,6.6,0.2,10
				c0.1,1.7,0.7,3.4,1.8,4.8c2.1,2.7,5,2.2,7.5,0.4c1-0.8,2-3,1.6-3.7C27.6,48.3,25,47.4,21.8,43.2L21.8,43.2z"/>
			<path class="st0" d="M28.7,26.2c-3-1-5.7-0.9-6-4.2c-0.3-2.7,3.2-6.4,5.4-7.4c3-1.5,5.2-0.8,7.6,0.7c2.6,1.7,3.2,4.2,0.9,6.2
				S31.4,24.6,28.7,26.2z"/>
		</g>
	</g>
</g>
</svg>
