<svg xmlns="http://www.w3.org/2000/svg" viewBox="0 0 181.5 165.86">
  <title>Asset 6</title>
  <g id="Layer_2" data-name="Layer 2">
    <g id="Layer_1-2" data-name="Layer 1">
      <g>
        <path d="M115.91,67.91a11.8,11.8,0,0,0,4.2,3.1.15.15,0,0,1-.06.28c-4.24.24-9.93-3.09-12.71-4.86a45.81,45.81,0,0,0-3.15,3.65c-9.6,13.62-26.74,6.49-31.15-4A42.51,42.51,0,0,1,69.8,51.9c-.42-8.79.35-17.63.06-26.42-.14-4.16-1.89-11.12-3.19-15.11-1.6-4.91.63-7.39,5-9.4S81-.06,83.57,4.85c3.84,7.46,4.53,16.31,4.49,24.58,0,2.13-.27,4.25-.46,7.1,3.58-4.09,7.92-7.55,12.1-5.93,3.6,1.41,5.82,6.25,8.78,9.73a38.94,38.94,0,0,0,1.71-17.74,56.85,56.85,0,0,0-2.8-10.9c-.44-1.31-2.22-4.09-5-1.73a10.18,10.18,0,0,1-4.72,1.6.08.08,0,0,1-.09-.11c1.71-4.37,4.34-8.11,8.46-10.24,1.23-.63,5.48,1.46,6.74,2.77,4.69,4.87,5.2,10.26,5.6,16.8.61,9.88-.12,19.58-3.73,29-2.63,6.84-.29,13.75,5.72,18.34a2.75,2.75,0,0,1,1.13,1.57l-3.22-.82A24.89,24.89,0,0,1,115.91,67.91Zm-28-24.68a.53.53,0,0,0-.66-.23c-.61.14-.4,1.3-.41,1.73,0,3.48-.09,6.58.17,10a9.32,9.32,0,0,0,1.75,4.83c2.16,2.72,5,2.21,7.45.36,1-.75,2-3,1.62-3.69C93.8,48.26,91.16,47.37,87.94,43.23Z" transform="translate(-2.35)"/>
        <path d="M94.9,26.16c-3-1-5.66-.88-6-4.22-.29-2.73,3.26-6.37,5.35-7.42,3-1.5,5.23-.77,7.63.74,2.64,1.66,3.23,4.19.87,6.21S97.53,24.63,94.9,26.16Z" transform="translate(-2.35)"/>
      </g>
      <g>
        <path d="M12.37,111.2l-2.13,2.18v7H5.45V90.08h4.79v17.45l1.5-1.87L17.63,99h5.75l-7.92,8.89,8.77,12.43H18.69Z" transform="translate(-2.35)"/>
        <path d="M35.49,120.73a9.88,9.88,0,0,1-7.37-2.86,10.4,10.4,0,0,1-2.83-7.64v-.59a12.77,12.77,0,0,1,1.23-5.7A9.28,9.28,0,0,1,30,100a9.07,9.07,0,0,1,5-1.4,8.33,8.33,0,0,1,6.73,2.78Q44,104.19,44,109.27v1.93H30.12a6.35,6.35,0,0,0,1.76,4.17,5.28,5.28,0,0,0,3.89,1.54,6.5,6.5,0,0,0,5.36-2.66l2.58,2.46a8.51,8.51,0,0,1-3.42,3A10.71,10.71,0,0,1,35.49,120.73Zm-.57-18.26a4,4,0,0,0-3.18,1.38,7.1,7.1,0,0,0-1.54,3.84h9.12v-.35A5.9,5.9,0,0,0,38,103.7,4,4,0,0,0,34.92,102.47Z" transform="translate(-2.35)"/>
        <path d="M58.92,103.39a12.42,12.42,0,0,0-2-.15q-3.28,0-4.43,2.52v14.58H47.75V99h4.57l.12,2.39a5.37,5.37,0,0,1,4.8-2.78,4.59,4.59,0,0,1,1.7.27Z" transform="translate(-2.35)"/>
        <path d="M74.09,120.34a7.16,7.16,0,0,1-.55-2,8.07,8.07,0,0,1-10.84.55,5.87,5.87,0,0,1-2-4.53,6.07,6.07,0,0,1,2.53-5.23c1.69-1.22,4.1-1.82,7.24-1.82h2.94v-1.4a3.71,3.71,0,0,0-.93-2.65,3.62,3.62,0,0,0-2.81-1,4.18,4.18,0,0,0-2.68.82,2.52,2.52,0,0,0-1,2.08H61.13a5.28,5.28,0,0,1,1.16-3.28,7.74,7.74,0,0,1,3.16-2.4,11.23,11.23,0,0,1,4.46-.86,8.9,8.9,0,0,1,6,1.88,6.69,6.69,0,0,1,2.29,5.29v9.61A11,11,0,0,0,79,120v.34Zm-5.26-3.45a5.48,5.48,0,0,0,2.67-.69,4.65,4.65,0,0,0,1.88-1.85v-4H70.8a7,7,0,0,0-4,.93,3,3,0,0,0-1.34,2.62,2.78,2.78,0,0,0,.92,2.19A3.51,3.51,0,0,0,68.83,116.89Z" transform="translate(-2.35)"/>
        <path d="M87.68,99l.14,2.23A7.67,7.67,0,0,1,94,98.63q4.27,0,5.85,3.27a7.56,7.56,0,0,1,6.54-3.27,6.65,6.65,0,0,1,5.25,2,8.55,8.55,0,0,1,1.76,5.75v14h-4.79V106.47a4.26,4.26,0,0,0-.88-3,3.89,3.89,0,0,0-2.94-.94,4,4,0,0,0-2.67.87,4.59,4.59,0,0,0-1.44,2.3l0,14.62H95.88v-14q-.1-3.77-3.84-3.76A4.21,4.21,0,0,0,88,104.89v15.45H83.17V99Z" transform="translate(-2.35)"/>
        <path d="M118.3,93.49a2.54,2.54,0,0,1,.7-1.84,2.65,2.65,0,0,1,2-.73,2.72,2.72,0,0,1,2,.73,2.54,2.54,0,0,1,.7,1.84,2.47,2.47,0,0,1-.7,1.8,2.72,2.72,0,0,1-2,.72,2.65,2.65,0,0,1-2-.72A2.47,2.47,0,0,1,118.3,93.49Zm5.08,26.85h-4.79V99h4.79Z" transform="translate(-2.35)"/>
        <path d="M135.52,111.2l-2.13,2.18v7H128.6V90.08h4.79v17.45l1.5-1.87L140.78,99h5.75l-7.92,8.89,8.77,12.43h-5.54Z" transform="translate(-2.35)"/>
        <path d="M158.64,120.73a9.88,9.88,0,0,1-7.37-2.86,10.4,10.4,0,0,1-2.83-7.64v-.59a12.77,12.77,0,0,1,1.23-5.7,9.28,9.28,0,0,1,3.46-3.91,9.07,9.07,0,0,1,5-1.4,8.33,8.33,0,0,1,6.73,2.78c1.58,1.85,2.38,4.47,2.38,7.86v1.93H153.27a6.35,6.35,0,0,0,1.76,4.17,5.28,5.28,0,0,0,3.89,1.54,6.5,6.5,0,0,0,5.36-2.66l2.58,2.46a8.51,8.51,0,0,1-3.42,3A10.71,10.71,0,0,1,158.64,120.73Zm-.57-18.26a4,4,0,0,0-3.18,1.38,7.1,7.1,0,0,0-1.54,3.84h9.12v-.35a5.9,5.9,0,0,0-1.28-3.64A4,4,0,0,0,158.07,102.47Z" transform="translate(-2.35)"/>
        <path d="M182.07,103.39a12.42,12.42,0,0,0-1.95-.15q-3.28,0-4.43,2.52v14.58H170.9V99h4.57l.12,2.39a5.37,5.37,0,0,1,4.8-2.78,4.59,4.59,0,0,1,1.7.27Z" transform="translate(-2.35)"/>
        <path d="M2.35,137.09a1.23,1.23,0,0,1,1.29-1.27A1.25,1.25,0,0,1,5,137.09a1.22,1.22,0,0,1-.36.9,1.26,1.26,0,0,1-.95.36A1.24,1.24,0,0,1,2.7,138,1.21,1.21,0,0,1,2.35,137.09Zm2.22,22H2.68V142H4.57Z" transform="translate(-2.35)"/>
        <path d="M11.49,142l.06,2.91a6.73,6.73,0,0,1,2.4-2.4,6.22,6.22,0,0,1,3.17-.83,5.13,5.13,0,0,1,4.08,1.55,7,7,0,0,1,1.35,4.63v11.19H20.68v-11.2a5.25,5.25,0,0,0-1-3.41,3.82,3.82,0,0,0-3.05-1.12,4.78,4.78,0,0,0-3.1,1.1,6.37,6.37,0,0,0-2,2.95v11.68H9.69V142Z" transform="translate(-2.35)"/>
        <path d="M26.67,150.39A10.3,10.3,0,0,1,28.44,144a5.72,5.72,0,0,1,4.81-2.34,5.93,5.93,0,0,1,5.3,2.78l.1-2.46h1.76v16.7a7.22,7.22,0,0,1-1.84,5.22,6.61,6.61,0,0,1-5,1.92,7.61,7.61,0,0,1-3.4-.79A6.65,6.65,0,0,1,27.63,163l1.05-1.14a6,6,0,0,0,4.76,2.46,4.83,4.83,0,0,0,3.69-1.39A5.56,5.56,0,0,0,38.5,159v-2.15a6.07,6.07,0,0,1-5.28,2.53A5.69,5.69,0,0,1,28.46,157a10.33,10.33,0,0,1-1.79-6.38Zm1.9.33a8.89,8.89,0,0,0,1.31,5.14,4.22,4.22,0,0,0,3.69,1.89,5,5,0,0,0,4.93-3.12V146.7a5.37,5.37,0,0,0-1.9-2.5,5.17,5.17,0,0,0-3-.86,4.26,4.26,0,0,0-3.7,1.87A9.51,9.51,0,0,0,28.57,150.72Z" transform="translate(-2.35)"/>
        <path d="M51.93,159.39a7.36,7.36,0,0,1-6.67-4.06,9.35,9.35,0,0,1-1-4.3v-.67a10.11,10.11,0,0,1,1-4.43,7.55,7.55,0,0,1,2.66-3.1,6.54,6.54,0,0,1,3.68-1.13,6.17,6.17,0,0,1,4.93,2.12,8.64,8.64,0,0,1,1.82,5.79v1.06H46.16V151a7.11,7.11,0,0,0,1.67,4.83A5.26,5.26,0,0,0,52,157.79a6.1,6.1,0,0,0,2.67-.55,5.85,5.85,0,0,0,2.11-1.76l1.18.9A6.9,6.9,0,0,1,51.93,159.39Zm-.35-16.08A4.71,4.71,0,0,0,48,144.87a7.22,7.22,0,0,0-1.77,4.19H56.46v-.2a6.34,6.34,0,0,0-1.41-4A4.37,4.37,0,0,0,51.58,143.31Z" transform="translate(-2.35)"/>
        <path d="M75.16,156.47,80.35,142h1.94l-6.37,17H74.39L68,142h1.94Z" transform="translate(-2.35)"/>
        <path d="M85.27,137.09a1.28,1.28,0,0,1,.34-.9,1.26,1.26,0,0,1,1-.37,1.28,1.28,0,0,1,1,.37,1.25,1.25,0,0,1,.36.9,1.22,1.22,0,0,1-.36.9,1.27,1.27,0,0,1-1,.36,1.26,1.26,0,0,1-1-.36A1.25,1.25,0,0,1,85.27,137.09Zm2.22,22H85.6V142h1.89Z" transform="translate(-2.35)"/>
        <path d="M94.41,142l.06,2.91a6.73,6.73,0,0,1,2.4-2.4,6.21,6.21,0,0,1,3.16-.83,5.14,5.14,0,0,1,4.09,1.55,7,7,0,0,1,1.35,4.63v11.19H103.6v-11.2a5.31,5.31,0,0,0-1-3.41,3.83,3.83,0,0,0-3-1.12,4.78,4.78,0,0,0-3.1,1.1,6.37,6.37,0,0,0-2,2.95v11.68H92.61V142Z" transform="translate(-2.35)"/>
        <path d="M116.64,157.79a5,5,0,0,0,3.31-1.11,3.92,3.92,0,0,0,1.44-2.87h1.81a5.28,5.28,0,0,1-1,2.84,6.07,6.07,0,0,1-2.38,2,7.29,7.29,0,0,1-3.2.73,6.56,6.56,0,0,1-5.31-2.34,9.4,9.4,0,0,1-2-6.27v-.57a10.66,10.66,0,0,1,.89-4.46,6.72,6.72,0,0,1,2.53-3,6.91,6.91,0,0,1,3.85-1.06,6.57,6.57,0,0,1,4.62,1.67,6.07,6.07,0,0,1,2,4.4h-1.81a4.91,4.91,0,0,0-8.72-2.62,8.3,8.3,0,0,0-1.42,5.17v.56a8.11,8.11,0,0,0,1.42,5.09A4.71,4.71,0,0,0,116.64,157.79Z" transform="translate(-2.35)"/>
        <path d="M133.57,159.39a7.33,7.33,0,0,1-6.66-4.06,9.23,9.23,0,0,1-1-4.3v-.67a10.11,10.11,0,0,1,.95-4.43,7.55,7.55,0,0,1,2.66-3.1,6.55,6.55,0,0,1,3.69-1.13,6.17,6.17,0,0,1,4.92,2.12,8.64,8.64,0,0,1,1.82,5.79v1.06H127.8V151a7.11,7.11,0,0,0,1.67,4.83,5.28,5.28,0,0,0,4.18,1.93,6.1,6.1,0,0,0,2.67-.55,5.85,5.85,0,0,0,2.11-1.76l1.18.9A6.9,6.9,0,0,1,133.57,159.39Zm-.34-16.08a4.72,4.72,0,0,0-3.59,1.56,7.22,7.22,0,0,0-1.77,4.19H138.1v-.2a6.28,6.28,0,0,0-1.41-4A4.37,4.37,0,0,0,133.23,143.31Z" transform="translate(-2.35)"/>
        <path d="M145.44,142l.06,2.91a6.73,6.73,0,0,1,2.4-2.4,6.22,6.22,0,0,1,3.17-.83,5.13,5.13,0,0,1,4.08,1.55,7,7,0,0,1,1.35,4.63v11.19h-1.87v-11.2a5.25,5.25,0,0,0-1-3.41,3.82,3.82,0,0,0-3-1.12,4.78,4.78,0,0,0-3.1,1.1,6.37,6.37,0,0,0-2,2.95v11.68h-1.88V142Z" transform="translate(-2.35)"/>
        <path d="M164.31,137.65V142h3.53v1.54h-3.53v11.38a3.55,3.55,0,0,0,.51,2.11,2,2,0,0,0,1.71.7,13.11,13.11,0,0,0,1.53-.16l.07,1.53a6,6,0,0,1-2,.27,3.36,3.36,0,0,1-2.82-1.13,5.3,5.3,0,0,1-.89-3.32V143.56h-3.13V142h3.13v-4.37Z" transform="translate(-2.35)"/>
        <path d="M182,154.74a2.7,2.7,0,0,0-1.13-2.26,8.77,8.77,0,0,0-3.4-1.33,15.67,15.67,0,0,1-3.52-1.1,4.8,4.8,0,0,1-1.86-1.52,3.85,3.85,0,0,1-.61-2.18,4.08,4.08,0,0,1,1.69-3.33,6.78,6.78,0,0,1,4.32-1.32,7,7,0,0,1,4.58,1.41,4.53,4.53,0,0,1,1.72,3.68h-1.89a3.09,3.09,0,0,0-1.25-2.49,5.66,5.66,0,0,0-6.15-.16,2.55,2.55,0,0,0-1.12,2.15,2.34,2.34,0,0,0,.93,2,10.21,10.21,0,0,0,3.42,1.28,16,16,0,0,1,3.72,1.25,4.78,4.78,0,0,1,1.84,1.59,4.37,4.37,0,0,1-1.14,5.7,7.4,7.4,0,0,1-4.55,1.3,7.57,7.57,0,0,1-4.83-1.45,4.41,4.41,0,0,1-1.85-3.64h1.89a3.27,3.27,0,0,0,1.39,2.57,5.68,5.68,0,0,0,3.4.92,5.34,5.34,0,0,0,3.18-.86A2.61,2.61,0,0,0,182,154.74Z" transform="translate(-2.35)"/>
      </g>
    </g>
  </g>
</svg>
