<svg xmlns="http://www.w3.org/2000/svg" viewBox="0 0 70.99 102.42">
  <title>Asset 1</title>
  <g id="Layer_2" data-name="Layer 2">
    <g id="Layer_1-2" data-name="Layer 1">
      <path d="M27.07,48.11c4.64-5.41,10.28-10,15.7-7.84,4.68,1.86,7.55,8.27,11.39,12.87a52.37,52.37,0,0,0,2.22-23.47,69,69,0,0,0-3.63-14.43c-1.19-3.37-3.55-5.2-7.22-2.08a10.73,10.73,0,0,1-5.64,1.94c2.22-5.85,5.65-10.88,11-13.72,1.58-.84,5.6.83,7.23,2.56,6.08,6.45,8.25,14.69,8.78,23.34.79,13.07-.15,25.9-4.84,38.35-3.42,9.05-.38,18.19,7.42,24.26A3.58,3.58,0,0,1,71,92l-6.56-2.33-.54,1.21,6,3.18c-3.78,1.55-3.78,1.55-17.15-6.37-1.35,1.58-2.89,3.09-4.1,4.83-12.44,18-34.69,8.59-40.41-5.3A57.39,57.39,0,0,1,4,68.45c-.55-11.63.45-23.32.07-35A61.28,61.28,0,0,0,.8,17.1c-2.08-6.5-.07-13.38,5.57-16S18,.75,21.22,7.24c5,9.87,6.51,20.54,6.45,31.47C27.65,41.53,27.32,44.34,27.07,48.11Zm.83,9.28-1.66,1.06c0,4.6-.23,9.22.11,13.79a12.37,12.37,0,0,0,2.27,6.4c2.79,3.59,6.54,2.91,9.67.47,1.28-1,2.66-4,2.1-4.89C36.51,68.42,32.13,63,27.9,57.39Z"/>
      <path d="M36.54,34.39c-3.87-1.36-7.34-1.17-7.8-5.58C28.36,25.2,33,20.38,35.68,19c3.88-2,6.78-1,9.89,1,3.43,2.19,4.2,5.55,1.13,8.22S40,32.36,36.54,34.39Z"/>
    </g>
  </g>
</svg>
